<?xml version="1.0" standalone="no"?><!DOCTYPE svg PUBLIC "-//W3C//DTD SVG 1.1//EN" "http://www.w3.org/Graphics/SVG/1.1/DTD/svg11.dtd"><svg t="1629738292136" class="icon" viewBox="0 0 1024 1024" version="1.1" xmlns="http://www.w3.org/2000/svg" p-id="3649" xmlns:xlink="http://www.w3.org/1999/xlink" width="16" height="16"><defs><style type="text/css"></style></defs><path d="M882.8 421.6c-13.5-19.2-35.6-30.6-58.6-30.6L670 388.7l33.9-151.1c8.2-36.8-6.9-74.3-37.7-93.4-13.8-8.6-29.8-13.1-46.1-13.1-30.5 0-58.2 15.5-74.3 41.3-5.2 8.3-10.9 20.1-19.1 39.2-2.9 6.8-5.7 13.3-8.4 19.8-18.8 44.8-33.7 80.2-70.1 112.2-23.1 20.2-50.3 33.7-88.2 43.7-7.7 2-15.9 3.3-24.3 3.7l-1.4 0.1H167.7c-21.9 0-39.7 17.8-39.7 39.7v422.7c0 21.9 17.8 39.7 39.7 39.7h524c32.9 0 62.5-20.8 73.6-51.8l126.5-353.7c7.9-22.3 4.5-46.9-9-66.1zM293.6 842.4h-115V441.6h115v400.8z m550.5-371.9L717.6 824.1c-3.9 10.9-14.3 18.2-25.9 18.2H344.3V441.1c9.8-0.9 19.5-2.5 28.7-4.9 45.9-12.1 79.4-28.9 108.7-54.6 45.2-39.6 62.9-81.8 83.4-130.6 2.7-6.3 5.4-12.8 8.2-19.4 4.4-10.2 10.8-24.7 15.6-32.5 6.8-10.9 18.5-17.4 31.3-17.4 6.9 0 13.6 1.9 19.4 5.5 12.3 7.6 18.5 23.8 15 39.3l-36 160.4c-2.8 12.7 0.1 25.8 8.2 36 8 10.2 20.1 16.2 33.1 16.4l164.1 2.5c7.1 0 13.5 3.3 17.6 9.1 3.9 5.7 4.9 12.9 2.5 19.6z" p-id="3650"></path></svg>